<svg viewBox="0 0 1000 1000" xmlns="http://www.w3.org/2000/svg"><!-- Source art for public/profile-shades-glasses.webp (ProfileShades). Laid over the square profile photo: 1000 units = the photo's width. Baked by rendering at 720 x 720 px with CSS filter drop-shadow(0 4.8px 4.8px rgb(30 12 6 / .4)), cropping to the art, and saving as WebP (quality 88). --><defs><linearGradient id="glasses-acetate" x1="0" y1="0" x2="0" y2="1"><stop offset="0" stop-color="#3a3a42"/><stop offset=".35" stop-color="#141418"/><stop offset="1" stop-color="#050507"/></linearGradient><linearGradient id="glasses-lens" x1="0" y1="0" x2="0" y2="1"><stop offset="0" stop-color="#2d3749"/><stop offset=".55" stop-color="#171c27"/><stop offset="1" stop-color="#262f40"/></linearGradient><linearGradient id="glasses-glare" x1="0" y1="0" x2="1" y2=".55"><stop offset=".18" stop-color="#fff" stop-opacity="0"/><stop offset=".34" stop-color="#fff" stop-opacity=".2"/><stop offset=".42" stop-color="#fff" stop-opacity=".05"/><stop offset=".5" stop-color="#fff" stop-opacity="0"/></linearGradient></defs><g transform="translate(505 300)"><path d="M-10 -42 Q0 -46 10 -42 L10 -22 Q0 -27 -10 -22 Z" fill="url(#glasses-acetate)"/><g><path d="M8 -40 L150 -52 Q172 -54 170 -32 L162 8 Q152 54 100 57 Q46 60 25 31 Q16 13 8 -6 Z" fill="url(#glasses-acetate)" stroke="#000" stroke-width="1.4"/><path d="M22 -26 L146 -36 Q157 -37 155 -25 L149 7 Q141 41 100 44 Q54 46 37 23 Q29 9 22 -9 Z" fill="url(#glasses-lens)" fill-opacity=".93"/><path d="M22 -26 L146 -36 Q157 -37 155 -25 L149 7 Q141 41 100 44 Q54 46 37 23 Q29 9 22 -9 Z" fill="url(#glasses-glare)"/><path d="M18 -37 L146 -48" stroke="#fff" stroke-opacity=".32" stroke-width="2.4" stroke-linecap="round"/><path d="M46 40 Q100 50 142 20" fill="none" stroke="#9fb2d6" stroke-opacity=".22" stroke-width="2"/><path d="M160 -50 L184 -47 L184 -31 L160 -32 Z" fill="url(#glasses-acetate)"/><circle cx="152" cy="-42" r="2.4" fill="#cfd0d8"/><circle cx="160" cy="-41" r="2.4" fill="#cfd0d8"/></g><g transform="scale(-1 1)"><path d="M8 -40 L150 -52 Q172 -54 170 -32 L162 8 Q152 54 100 57 Q46 60 25 31 Q16 13 8 -6 Z" fill="url(#glasses-acetate)" stroke="#000" stroke-width="1.4"/><path d="M22 -26 L146 -36 Q157 -37 155 -25 L149 7 Q141 41 100 44 Q54 46 37 23 Q29 9 22 -9 Z" fill="url(#glasses-lens)" fill-opacity=".93"/><path d="M22 -26 L146 -36 Q157 -37 155 -25 L149 7 Q141 41 100 44 Q54 46 37 23 Q29 9 22 -9 Z" fill="url(#glasses-glare)"/><path d="M18 -37 L146 -48" stroke="#fff" stroke-opacity=".32" stroke-width="2.4" stroke-linecap="round"/><path d="M46 40 Q100 50 142 20" fill="none" stroke="#9fb2d6" stroke-opacity=".22" stroke-width="2"/><path d="M160 -50 L184 -47 L184 -31 L160 -32 Z" fill="url(#glasses-acetate)"/><circle cx="152" cy="-42" r="2.4" fill="#cfd0d8"/><circle cx="160" cy="-41" r="2.4" fill="#cfd0d8"/></g></g></svg>
